<?xml version="1.0" standalone="no"?>
<!DOCTYPE svg PUBLIC "-//W3C//DTD SVG 20010904//EN"
 "http://www.w3.org/TR/2001/REC-SVG-20010904/DTD/svg10.dtd">
<svg version="1.0" xmlns="http://www.w3.org/2000/svg"
 width="600.000000pt" height="600.000000pt" viewBox="0 0 600.000000 600.000000"
 preserveAspectRatio="xMidYMid meet">
<metadata>
Created by potrace 1.11, written by Peter Selinger 2001-2013
</metadata>
<g transform="translate(0.000000,600.000000) scale(0.100000,-0.100000)"
fill="#000000" stroke="none">
<path d="M2925 4475 c-105 -26 -137 -48 -251 -180 -47 -55 -98 -113 -113 -130
-14 -16 -110 -127 -211 -245 -102 -118 -187 -217 -190 -220 -3 -3 -32 -36 -65
-75 -77 -90 -88 -99 -160 -135 -72 -35 -155 -44 -235 -23 -67 17 -103 40 -245
157 -60 50 -118 98 -129 106 -10 8 -23 20 -30 25 -94 85 -263 214 -304 233
-173 79 -381 -4 -465 -186 -32 -70 -30 -189 6 -307 15 -49 29 -97 31 -106 3
-9 12 -39 21 -65 9 -27 18 -56 20 -64 2 -8 11 -42 21 -75 10 -33 18 -62 19
-65 0 -3 10 -36 22 -75 22 -71 95 -316 185 -620 27 -93 63 -215 80 -270 16
-55 31 -107 33 -115 9 -37 94 -308 103 -330 31 -75 109 -147 202 -185 43 -18
117 -18 1705 -20 913 0 1680 3 1705 8 112 21 221 110 258 213 17 47 270 889
303 1009 4 17 17 59 27 95 11 36 36 119 55 185 20 66 67 226 106 355 62 210
69 243 67 310 -4 159 -106 285 -265 326 -150 38 -218 9 -467 -199 -193 -162
-351 -289 -377 -306 -47 -29 -132 -49 -192 -45 -104 6 -198 57 -275 151 -25
30 -52 62 -60 71 -9 9 -85 98 -170 197 -85 99 -157 182 -160 185 -3 3 -48 54
-100 115 -93 107 -124 143 -172 196 -81 91 -215 132 -333 104z"/>
</g>
</svg>
